PathFileType	4	(X/Y/Z)	 s07c0301.trc
DataRate	CameraRate	NumFrames	NumMarkers	Units	OrigDataRate	OrigDataStartFrame	OrigNumFrames
200	200	4	48	mm	200	1	2000
Frame#	Time	racr			lacr			c7			jug			rlel			rdr			llel			ldr			s2			lic			ric			lasi			rasi			rpsi			lpsi			rgt			lgt			rth1			rth2			rth3			rth4			rlfc			rmfc			rsh1			rsh2			rsh3			rsh4			rlmal			rcal			rtoe			rmt5			lth1			lth2			lth4			lth3			llfc			lmfc			lsh1			lsh2			lsh3			lsh4			llmal			lcal			ltoe			lmt5			SBIKE			LBIKE			RBIKE			
		X1	Y1	Z1	X2	Y2	Z2	X3	Y3	Z3	X4	Y4	Z4	X5	Y5	Z5	X6	Y6	Z6	X7	Y7	Z7	X8	Y8	Z8	X9	Y9	Z9	X10	Y10	Z10	X11	Y11	Z11	X12	Y12	Z12	X13	Y13	Z13	X14	Y14	Z14	X15	Y15	Z15	X16	Y16	Z16	X17	Y17	Z17	X18	Y18	Z18	X19	Y19	Z19	X20	Y20	Z20	X21	Y21	Z21	X22	Y22	Z22	X23	Y23	Z23	X24	Y24	Z24	X25	Y25	Z25	X26	Y26	Z26	X27	Y27	Z27	X28	Y28	Z28	X29	Y29	Z29	X30	Y30	Z30	X31	Y31	Z31	X32	Y32	Z32	X33	Y33	Z33	X34	Y34	Z34	X35	Y35	Z35	X36	Y36	Z36	X37	Y37	Z37	X38	Y38	Z38	X39	Y39	Z39	X40	Y40	Z40	X41	Y41	Z41	X42	Y42	Z42	X43	Y43	Z43	X44	Y44	Z44	X45	Y45	Z45	X46	Y46	Z46	X47	Y47	Z47	X48	Y48	Z48	
1	0.0050	444.721719	1437.817301	-85.960226	428.605670	1427.645552	-352.650067	415.278220	1467.838082	-228.496785	378.146492	1329.545435	-224.445669	523.201578	1123.743778	29.778695	718.447088	911.514127	-52.771163	533.950059	1131.446103	-457.392787	728.197500	911.768989	-397.238189	-144.539830	1212.563969	-241.607250	25.295512	1259.522147	-378.563812	25.303987	1247.320654	-85.241009	54.416451	1177.939309	-351.984351	34.758040	1189.309035	-103.368423	-118.167076	1249.629098	-188.156943	-102.266432	1260.126364	-295.944735	-41.435117	1123.497653	-44.834598	-36.338547	1103.947742	-411.837537	90.894456	1052.896585	-34.778735	174.965706	1029.091581	-43.498826	238.568072	972.131443	-38.760811	190.688737	1058.437274	-59.204052	354.697652	883.529225	-71.034905	356.915800	866.280500	-165.077771	315.056243	744.620890	-51.180997	310.801847	657.376138	-73.330663	267.329144	582.266167	-71.936727	327.086070	658.018509	-109.961929	220.858894	453.675004	-78.292169	155.456507	413.082123	-107.246034	429.018243	392.750744	-104.847117	368.253470	361.446838	-49.019250	28.487367	999.840127	-416.871759	100.407553	950.694873	-419.993676	128.415334	972.275446	-411.595655	139.104495	868.701132	-414.412864	235.247817	716.943221	-379.300657	222.936042	702.400475	-282.828950	136.606306	603.742243	-402.096949	93.104680	532.022598	-381.858177	18.104897	483.065623	-393.098759	94.719068	533.919992	-340.547311	-80.916188	389.839892	-393.261233	-161.038175	366.504346	-361.263173	118.023653	290.859291	-354.529647	35.395308	283.604312	-419.173893	-261.195083	975.100645	-232.357501	-76.578929	83.368315	-437.510265	-83.049873	79.223444	-39.972440	
2	0.0100	444.683576	1437.749588	-85.963181	438.637656	1430.254779	-356.256402	415.337078	1467.725916	-228.423699	378.114653	1329.481009	-224.430162	523.510871	1123.954742	30.093498	718.409841	911.553913	-52.759949	533.910729	1131.393069	-457.519007	728.184358	911.803417	-397.240704	-144.534031	1212.576116	-241.622131	25.265106	1259.540641	-378.598392	25.302027	1247.309233	-85.245652	54.406791	1177.912948	-352.020909	34.749076	1189.315740	-103.347370	-118.166949	1249.629219	-188.157405	-102.253263	1260.120133	-295.970292	-41.426610	1123.502903	-44.853440	-36.363067	1103.954085	-411.871796	90.305348	1051.910915	-36.342141	174.400034	1028.120247	-44.541173	238.573105	972.158749	-38.788847	190.731511	1058.454140	-59.215816	354.699261	883.558978	-71.051524	356.900068	866.275573	-165.063046	315.073200	744.626209	-51.211767	310.811275	657.392093	-73.347038	267.352959	582.291207	-71.950776	327.078497	658.020655	-109.977352	220.857780	453.699694	-78.287761	155.454805	413.119949	-107.244248	428.953319	392.745940	-104.802603	368.260424	361.465336	-49.032516	28.461442	999.840498	-416.909510	100.391719	950.659921	-419.984334	128.396202	972.280813	-411.610950	139.085353	868.691084	-414.445584	235.229127	716.919499	-379.311096	222.919039	702.390969	-282.860851	136.574746	603.738144	-402.121846	93.098591	532.000979	-381.851435	18.098637	483.045632	-393.122205	94.718414	533.894911	-340.572406	-80.936072	389.810358	-393.266115	-161.053355	366.472924	-361.276138	118.023091	290.870092	-354.543373	35.384592	283.603221	-419.184387	-261.201230	975.096883	-232.335292	-76.578734	83.455580	-437.571453	-83.061969	79.263927	-39.980047	
3	0.0150	444.692156	1437.721492	-85.945974	438.650035	1430.214261	-356.231026	415.381094	1467.672396	-228.414380	378.079147	1329.414885	-224.415741	523.465261	1123.902982	30.167303	718.404783	911.572676	-52.723803	533.860594	1131.320154	-457.659801	728.182135	911.809076	-397.264978	-144.533899	1212.570888	-241.630331	25.249866	1259.531173	-378.596834	25.297040	1247.286309	-85.236854	54.374560	1177.913718	-352.021641	34.754552	1189.305049	-103.361043	-118.176525	1249.642248	-188.159791	-102.265948	1260.123149	-295.984201	-41.429172	1123.509692	-44.844603	-36.387803	1103.945008	-411.881206	90.933843	1052.915171	-34.810875	174.987043	1029.093996	-43.560184	238.583804	972.183809	-38.784299	190.726856	1058.477037	-59.238944	354.696806	883.576645	-71.048792	356.916991	866.293430	-165.074833	315.070276	744.642639	-51.222583	310.818313	657.407388	-73.349922	267.324976	582.303128	-71.950597	327.084585	658.027517	-109.991493	220.833936	453.723562	-78.291458	155.459271	413.124592	-107.263090	428.991550	392.765099	-104.823869	368.247364	361.508671	-49.031683	28.444442	999.839480	-416.909508	100.360286	950.654888	-420.003495	128.370121	972.271599	-411.624297	139.062623	868.685129	-414.470679	235.197659	716.926445	-379.338319	222.916995	702.389099	-282.869330	136.565246	603.714447	-402.122978	93.082430	531.994141	-381.855206	18.081132	483.034926	-393.132333	94.718696	533.865331	-340.573601	-80.936441	389.789162	-393.264779	-161.059399	366.445506	-361.276374	118.015863	290.866597	-354.545046	35.389513	283.596885	-419.185861	-261.207509	975.099162	-232.352531	-76.576430	83.463742	-437.569363	-83.045082	79.241720	-39.990725	
4	0.0200	444.467018	1438.369509	-85.755178	427.260976	1428.024250	-354.029167	415.246880	1467.391235	-228.240299	378.081340	1329.364547	-224.414098	523.627661	1124.693785	31.366180	718.396221	911.584972	-52.706572	533.820339	1131.279376	-457.772376	728.170066	911.817996	-397.294943	-144.543386	1212.558906	-241.625311	24.084009	1258.848399	-376.460038	25.201175	1247.251441	-85.745806	54.380920	1177.927574	-352.054127	34.742590	1189.309024	-103.371641	-118.162044	1249.619508	-188.180742	-102.278650	1260.117837	-295.971714	-41.415518	1123.519817	-44.857095	-36.123509	1103.975151	-411.118849	90.332378	1051.931451	-36.371929	174.882781	1029.549970	-43.419599	238.593282	972.173681	-38.804343	190.744204	1058.477152	-59.257495	354.719242	883.522547	-71.056767	355.603411	868.537270	-170.437969	315.090222	744.655946	-51.225138	310.744772	657.391038	-73.415311	267.324374	582.321785	-71.957296	327.075545	657.924846	-110.113375	220.396487	454.313753	-77.867834	155.445001	413.129771	-107.252578	428.939468	392.810795	-104.747686	368.222978	361.526674	-49.027467	28.412688	999.810666	-416.925261	100.664931	949.437634	-418.899997	128.343507	972.298532	-411.653881	139.050425	868.673087	-414.449115	235.175736	716.916117	-379.326544	222.812594	702.271147	-282.942461	136.662585	603.531951	-402.331012	93.286369	531.629675	-381.957585	18.091755	482.995665	-393.117038	95.255338	533.623331	-340.261618	-80.950051	390.082913	-393.747769	-161.055636	366.410532	-361.281985	118.032869	290.837558	-354.535954	35.391825	283.562964	-419.187863	-261.082357	975.041902	-232.874127	-76.575977	83.467760	-437.576157	-83.068381	79.256248	-39.989557	
